<mxfile host="app.diagrams.net" modified="2023-04-11T17:58:02.061Z" agent="Mozilla/5.0 (Windows NT 10.0; Win64; x64) AppleWebKit/537.36 (KHTML, like Gecko) Chrome/111.0.0.0 Safari/537.36" version="21.1.6" etag="Ieulj3NLu0iwhg8on4SS" type="github">
  <diagram name="PÃ¡gina-1" id="eTatCwYElHbo2Cp0U4fl">
    <mxGraphModel>
      <root>
        <mxCell id="0" />
        <mxCell id="1" parent="0" />
      </root>
    </mxGraphModel>
  </diagram>
</mxfile>
